Patient4_TMGait_0pt5_02_right_33_EMG.mot
version=1
nRows=39
nColumns=33
inDegrees=no
endheader
time	1LAddLong	2LGlutMax	3LGlutMed	4LIliopsoas	5LSemiMemb	6LBicFemLong	7LRecFem	8LVastMed	9LVastLat	10LGasMed	11LTibAnt	12lTibPost	13LPeroneusLong	14LSol	15LExtDigLong	16LFlexDigLong	17RAddLong	18RGlutMax	19RGlutMed	20RIliopsoas	21RSemiMemb	22RBicFemLong	23RRecFem	24RVastMed	25RVastLat	26RGasMed	27RTibAnt	28RTibPost	29RPeroneusLong	30RSol	31RExtDigLong	32RFlexDigLong
44.503	0.007629	-0.002594	-0.012665	0.020447	0.012817	0.023804	0.04303	0.019531	0.016937	0.034027	0.028229	0.007935	-0.00824	0.042267	0.079956	0.00473	0.014496	-0.017853	-0.43778	-0.060883	0.006714	-0.01358	-0.001373	-0.10223	0.036011	0.13062	-0.090485	-0.001984	-0.21408	0.002136	0.00061	-0.006104
44.504	0.003357	0.002136	-0.063477	-0.003662	0.015106	0.009155	0.03952	0.020294	0.015869	0.022888	0.01236	0.00061	0.019226	0.029602	0.093689	0.007477	0.02182	-0.085297	0.001984	-0.037689	0.092163	0.001984	0.006866	-0.12528	0.023193	0.056	-0.25589	-0.005493	0.42862	0.005951	-0.000153	-0.007935
44.505	0.006866	0.018158	-0.007172	-0.02243	0.017242	0.009155	0.081482	0.002747	0.042877	-0.002899	0.01358	-0.001068	0.034637	0.012817	0.11749	0.010986	0.021362	-0.048218	0.48874	-0.019836	0.072021	-0.027466	0.011292	-0.10941	0.032349	0.002747	-0.16464	-0.002899	0.66727	-0.016174	0.000153	-0.00412
44.506	0.009155	0.021515	0.054321	0.01358	0.018158	0.002441	0.088654	0.007172	0.01297	-0.011444	0.039978	0.003052	-0.012665	0.01709	0.084076	-0.003967	0.020294	-0.057526	0.93994	-0.036469	0.027618	-0.020142	-0.009308	-0.09964	0.030518	-0.032654	-0.059052	-0.000916	0.33737	-0.023346	-0.000458	-0.006409
44.507	0.006866	0.001984	0.063477	0.023193	0.011597	0.006561	0.076447	0.012054	0.009613	-0.007324	0.029602	0.001526	-0.033417	0.027466	-0.089264	-0.007477	-0.007629	-0.1358	0.42847	-0.010681	0.045319	-0.033722	-0.052795	-0.060577	0.033569	-0.053406	0.001068	-0.002747	0.050201	-0.039825	0.001373	-0.003662
44.508	0.005035	-0.016174	0.041351	0.023651	0.014648	0.032196	0.064087	0.013733	0.009613	-0.003662	0.009918	0.004272	-0.018005	0.007935	0.11978	0.006866	-0.010223	-0.15015	-0.1918	0.045471	0.08255	-0.042419	-0.04303	-0.041351	0.027618	-0.063934	0.014343	-0.001526	-0.012665	-0.019073	0.00061	-0.006409
44.509	0.010071	-0.021515	0.010376	-0.003357	0.014954	0.018463	0.069885	0.007172	0.008392	0.002747	-0.015564	-0.005341	-0.021973	0.023956	0.2063	-0.001221	0.001373	-0.023804	-0.030823	0.026093	0.13199	-0.057831	-0.00824	-0.10178	0.038605	-0.064392	0.010986	-0.002899	0.042267	-0.030975	-0.00473	-0.013123
44.51	0.003357	-0.009003	-0.019531	-0.005798	0.011902	0.009308	0.091095	0.001526	0.001831	0.001373	-0.00824	0.000153	0.033875	0.014343	0.28336	0.001831	0.017853	0.007782	0.11063	-0.000458	0.069122	-0.088654	-0.021667	-0.093231	0.040588	-0.073242	0.002136	-0.002289	0.11078	-0.033875	0.011292	-0.007477
44.511	0.006714	-0.012512	-0.018768	-0.001068	0.014801	0.017853	0.084076	0.00824	0	-0.00061	-0.007477	0.001373	0.10803	0.040741	-0.21591	0.00412	0.015717	0.003052	0.070496	-0.026703	-0.16068	-0.021362	-0.02121	-0.090027	0.036469	-0.07019	-0.024719	-0.003815	0.10101	-0.040283	-0.003357	0.001068
44.512	0.012054	-0.006866	-0.032043	-0.005341	0.005493	0.011292	0.073547	0.007782	-0.005188	-0.00351	-0.12405	0.002289	0.072327	0.039978	-0.076599	0.00061	0.025635	-0.022125	0.035553	-0.027466	-0.31586	0.11597	-0.037231	-0.053864	0.037994	-0.064392	-0.011902	0	0.015259	-0.047455	0.00351	-0.002899
44.513	0.005951	-0.027924	-0.031586	-0.006409	0.007324	0.016479	0.063019	0.002747	0.013733	0.002136	-0.13168	-0.001373	-0.11185	0.009918	-0.076447	-0.008087	0.002441	0.016937	-0.047455	-0.014496	-0.21576	0.14114	-0.029602	-0.018158	0.045929	-0.057678	0.025635	-0.005188	0.018616	-0.048065	-0.004578	-0.003967
44.514	-0.000153	-0.018921	-0.055695	0.011444	0.011292	0.013733	0.062103	0.000916	0.038147	0.010834	-0.088959	-0.003204	-0.088959	0.023956	-0.023346	-0.000458	-0.016174	-0.007019	0.002289	0.007019	-0.015106	0.15121	-0.021057	0.001221	0.039063	-0.061493	0.055695	0.001984	0.079193	-0.042572	-0.001984	-0.003662
44.515	0.004272	-0.017548	0.011292	-0.001831	0.012512	0.019989	0.058136	0.003815	0.03067	-0.022278	-0.06485	0.009766	0.17578	0.062866	-0.035095	0.011597	-0.049133	-0.1033	-0.028992	0.002289	0.40665	0.072632	-0.063324	-0.039215	0.041656	-0.061951	0.057983	-0.00412	-0.019684	-0.032959	0.001068	0.009918
44.516	0.002747	-0.027618	-0.015869	0.001221	0.004883	0.043182	0.092316	0.00351	0.014038	-0.054626	0.17746	0.003967	0.13336	0.10056	0.088043	0.013733	-0.020294	-0.015869	-0.02533	0.006256	0.20538	0.005035	-0.056305	-0.056152	0.05188	-0.05249	0.060883	0.000916	-0.12344	-0.047913	0.00061	0.001068
44.517	0.003967	-0.018311	0.003815	0.011292	0.015259	-0.011902	0.093536	0.009918	0.032654	-0.029907	0.38223	0.00061	-0.073853	0.1059	-0.074921	0.01358	0.007324	-0.015259	-0.03952	0.014648	-0.006256	0.005798	-0.0737	-0.059052	0.051422	-0.054474	0.030823	-0.006104	-0.67917	-0.050812	-0.001678	0.001221
44.518	0.006104	-0.02121	-0.003967	0.013123	0.013123	-0.019531	0.1062	0.005188	0.024872	-0.026245	0.48737	0.001678	-0.092316	0.13473	-0.082703	0.01358	0.006866	-0.065155	0.21774	0.014191	-0.094299	-0.005493	-0.069885	-0.12375	0.038452	-0.054169	0.02533	-0.004425	-0.23819	-0.037689	0.003204	0.002594
44.519	-0.001526	-0.033112	0.060425	0	0.015717	-0.011749	0.094757	0.005188	0.031891	0.011444	0.439	0.004272	-0.06012	0.07019	-0.066528	0.001678	0.028992	-0.040588	0.23102	0.041504	-0.17059	-0.026855	-0.018616	-0.16205	0.046234	-0.054474	0.011292	-0.004578	0.18875	0.007629	-0.000458	0.008545
44.52	0.00473	-0.037537	0.010071	-0.001068	0.019379	-0.006256	0.089569	0.002441	0.029449	-0.011749	-0.091095	0.002441	0.048676	0.020294	-0.29892	-0.007019	0.015564	-0.029297	0.19379	0.030823	-0.14374	-0.051422	-0.00351	-0.11963	0.026855	-0.044403	0.002899	-0.005493	0.20401	0.005341	-0.001221	0.002899
44.521	0.003662	-0.054169	-0.028992	0.005188	0.010529	-0.007935	0.071564	0.009155	0.025635	-0.02121	-0.13702	-0.007172	0.083313	0.051117	-0.17242	-0.007629	0.031433	-0.040588	0.063477	-0.032654	-0.13916	-0.058899	-0.006714	-0.095215	0.030365	-0.040588	0.024872	-0.006409	0.43091	0.016479	-0.002899	0.006409
44.522	0.009766	-0.04776	-0.033569	-0.011597	0.017395	-0.014648	0.068665	0.005341	0.028229	-0.013733	-0.22324	0.003815	-0.050049	0.052338	-0.064087	-0.010681	0.006866	-0.031891	-0.069733	-0.064545	0.29526	-0.016937	-0.025635	-0.019379	0.045929	-0.041504	0.053406	-0.00061	0.74768	-0.025787	0.001526	0.002289
44.523	0.005646	-0.014191	-0.026093	0.011597	0.009308	-0.015106	0.086365	0.007935	0.033569	-0.071564	-0.16464	0.007324	0.011292	0.037537	-0.12756	-0.007629	0.005646	-0.010071	-0.11322	-0.053406	0.4837	-0.019836	-0.019226	-0.000916	0.046387	-0.028381	0.050049	-0.007324	0.25284	-0.050964	-0.001831	0.001373
44.524	0.001068	0.012512	-0.021362	0.013885	0.024109	-0.001526	0.081177	0.007629	0.059967	-0.13153	-0.090332	0.001221	0.042725	0.11261	-0.12421	-0.000153	0.027008	-0.015869	-0.076599	-0.054779	0.20737	-0.01709	-0.002594	-0.071411	0.031738	-0.022583	0.02594	-0.008087	-0.22598	-0.055695	-0.003662	0.00824
44.525	0.006409	0.002136	-0.049438	0.000916	0.027924	-0.002289	0.097656	0.011444	0.090179	-0.16464	-0.14771	0.000458	-0.000916	0.10941	-0.2681	-0.001984	0.023346	-0.020905	-0.055847	-0.02655	0.027466	-0.049133	-0.035858	-0.075684	0.034637	-0.018158	0.037537	-0.006104	-0.12772	-0.028076	-0.002899	-0.001526
44.526	0.000763	-0.003815	-0.044556	-0.010529	0.031738	-0.010986	0.095215	0.00885	0.084839	-0.094604	-0.10147	0.005035	-0.072327	0.045929	-0.34454	-0.001526	0.036163	-0.010529	-0.041046	0.044098	-0.16769	0.03891	-0.050049	-0.10819	0.028534	-0.016632	0.024109	-0.003052	0.16159	-0.016785	0.003204	0
44.527	0.002594	0.00473	-0.10269	-0.00885	0.023346	-0.006561	0.094299	0.006561	0.091248	0.016174	-0.032501	0.000763	-0.18417	-0.037537	-0.22858	-0.000458	0.017395	0.003662	-0.051117	0.093079	0.059967	0.071106	-0.021362	-0.077667	0.057831	-0.012665	-0.029907	-0.012665	0.18478	-0.014191	0	-0.015106
44.528	0.004272	0.016785	-0.11841	0.001678	0.01236	0.006256	0.10284	0.005188	0.08606	0.023041	-0.034485	-0.001068	-0.21164	-0.11231	0.019379	0.000305	-0.041962	-0.002594	-0.04837	0.063477	0.18021	0.024261	-0.072784	-0.022583	0.046234	-0.011292	-0.053864	-0.005341	-0.2179	-0.037231	0.000916	-0.009613
44.529	0.007172	0.042877	-0.17761	0.001373	0.014343	0.021362	0.088501	0.00473	0.075378	0.022278	-0.074768	0.001526	-0.18372	-0.079498	0.29953	-0.003662	-0.052338	0.010376	-0.11337	0.028687	0.03006	0.068817	-0.054779	0.006256	0.058899	-0.011444	-0.039368	-0.003204	-0.13794	-0.009003	-0.002441	-0.010071
44.53	0	0.030823	-0.1918	0.016174	0.019836	0.0383	0.095215	0.005951	0.049591	-0.088196	-0.056763	-0.000916	-0.16144	-0.10696	0.27222	-0.007935	-0.029449	-0.016479	-0.18814	0.033722	0.052795	0.040588	-0.023804	-0.037689	0.018463	-0.00061	-0.001068	-0.006409	-0.026093	0.048065	-0.003662	-0.009308
44.531	0.020752	0.008392	-0.10269	0.015869	0.001068	0.031586	0.11032	0.006561	0.044403	-0.20599	-0.042725	-0.002136	-0.015717	-0.14221	0.071869	-0.001373	-0.010529	-0.044861	-0.080566	0.013885	0.038147	-0.001831	-0.02655	-0.035248	0.028687	-0.015106	0.023804	-0.012512	-0.12833	0.053101	0.001068	-0.012817
44.532	-0.02594	0.026703	0.16403	0.00885	-0.037994	0.052338	0.11124	0.013885	0.019989	-0.1152	0.019684	0.00061	0.011749	-0.10346	0.066528	0.006409	-0.019989	0.021362	-0.03891	-0.039368	0.036316	-0.025787	-0.016785	-0.03891	0.016327	-0.007629	0.017242	-0.010071	-0.21835	0.012512	0.000916	-0.006256
44.533	-0.023499	0.015564	0.22797	-0.010376	-0.070343	0.050354	0.10269	0.005951	0.007477	0.045776	-0.015564	0.007019	0.26962	-0.085754	-0.021667	0.010529	0.008545	0.006256	-0.11246	-0.06012	0.026703	-0.065308	-0.035553	-0.016022	0.021667	-0.002899	0.019226	-0.006714	-0.27679	0.003815	-0.000916	-0.002136
44.534	-0.008087	-0.002594	0.16449	-0.007782	-0.034332	0.030212	0.097504	0.011139	0	0.12741	0.049896	0.001221	0.26611	0.043945	0.019226	-0.005035	0.003967	-0.031586	-0.0737	-0.0383	0.012665	-0.16129	-0.023499	-0.046844	0.033417	-0.010376	0.022888	-0.008698	-0.2623	0.005798	-0.003662	0.002289
44.535	-0.007019	-0.04303	0.077057	-0.008545	0.013885	0.019226	0.098267	0.01358	0.017548	0.13489	0.24048	0.007629	-0.009766	0.11047	-0.018921	-0.019836	-0.017395	-0.026245	0.027924	-0.11719	0.001221	-0.13229	-0.080261	-0.047913	0.033112	-0.013123	0.010071	-0.009308	-0.15182	0.001221	-0.001068	-0.002136
44.536	-0.004578	-0.0354	0.020905	-0.010223	0.021515	-0.052948	0.075378	0.010223	0.063171	0.12222	0.34759	0.004425	-0.09079	0.04364	0.60806	-0.019684	-0.033417	-0.050049	0.028687	-0.14801	0.019684	-0.090637	-0.016632	-0.064545	0.03952	-0.015717	0.03418	-0.012054	0.05249	0.007629	-0.001068	-0.001831
44.537	-0.007019	-0.010223	0.03067	-0.016785	0.088806	-0.078888	0.094299	0.011902	0.019531	0.054169	0.19043	0.010223	-0.07431	-0.010071	0.38315	0.006561	-0.029907	0.016174	0.04364	-0.085907	0.11551	-0.053101	-0.018463	-0.011749	0.035095	-0.011597	0.033569	-0.009613	0.24979	0.005188	-0.00061	-0.003815
44.538	-0.007019	-0.014343	0.066223	0.005798	0.062714	-0.073242	0.10407	0.010223	0.013275	-0.048676	-0.089569	0.00061	0.006409	0.016785	0.45639	0.00412	0.003204	0.014191	0.1268	-0.016632	0.090027	-0.025787	-0.03479	-0.077057	0.034485	-0.001984	0.022736	-0.012054	0.3096	0.010529	-0.005493	0.00351
44.539	-0.002136	0.00946	0.053253	-0.009308	0.011597	-0.041351	0.12329	0.012512	0.020905	-0.081482	-0.19821	0.000305	-0.00946	0.007782	0.075989	-0.001221	0.022125	0.03067	0.051575	0.086823	-0.22507	0.053253	-0.001526	-0.084229	0.035095	-0.004883	0.013733	-0.010223	0.2533	0.033875	0	-0.002747
44.54	0.016479	0.035858	0.01297	-0.006561	-0.050659	-0.009918	0.13687	0.00061	0.036621	-0.021973	-0.23865	0.006561	-0.13473	-0.009766	-0.18707	-0.005341	0.042572	0.099792	-0.10147	0.22995	-0.2005	0.11231	-0.02243	-0.10773	0.02243	0.001068	0.000916	-0.010834	0.13473	0.016327	0.000153	-0.003357
44.541	0.023651	0.009766	0.001678	-0.007172	-0.066376	0.07019	0.14252	0.013275	0.12817	0.041199	-0.17303	0.003052	-0.18234	0.026245	-0.094452	-0.001678	0.06958	0.027161	-0.26215	0.26199	-0.053711	0.034943	0.01358	-0.10529	0.032196	0.000458	-0.021515	-0.009155	0.031128	0.0177	-0.001068	-0.005188
